<svg width="34" height="46" viewBox="0 0 34 46" fill="none" xmlns="http://www.w3.org/2000/svg">
<path d="M17 6.33337V0.083374L8.66665 8.41671L17 16.75V10.5C23.8958 10.5 29.5 16.1042 29.5 23C29.5 25.1042 28.9791 27.1042 28.0416 28.8334L31.0833 31.875C32.7083 29.3125 33.6666 26.2709 33.6666 23C33.6666 13.7917 26.2083 6.33337 17 6.33337ZM17 35.5C10.1041 35.5 4.49998 29.8959 4.49998 23C4.49998 20.8959 5.02081 18.8959 5.95831 17.1667L2.91665 14.125C1.29165 16.6875 0.333313 19.7292 0.333313 23C0.333313 32.2084 7.79165 39.6667 17 39.6667V45.9167L25.3333 37.5834L17 29.25V35.5Z" fill="white"/>
</svg>
